<?xml version="1.0" standalone="no"?>
<svg xmlns:xlink="http://www.w3.org/1999/xlink" id="wave" style="transform:rotate(0deg); transition: 0.3s" viewBox="0 0 1440 490" version="1.1" xmlns="http://www.w3.org/2000/svg"><defs><linearGradient id="sw-gradient-0" x1="0" x2="0" y1="1" y2="0"><stop stop-color="rgba(243, 106, 62, 1)" offset="0%"/><stop stop-color="rgba(255, 179, 11, 1)" offset="100%"/></linearGradient></defs><path style="transform:translate(0, 0px); opacity:1" fill="url(#sw-gradient-0)" d="M0,441L60,400.2C120,359,240,278,360,269.5C480,261,600,327,720,334.8C840,343,960,294,1080,245C1200,196,1320,147,1440,179.7C1560,212,1680,327,1800,375.7C1920,425,2040,408,2160,383.8C2280,359,2400,327,2520,269.5C2640,212,2760,131,2880,106.2C3000,82,3120,114,3240,114.3C3360,114,3480,82,3600,73.5C3720,65,3840,82,3960,138.8C4080,196,4200,294,4320,351.2C4440,408,4560,425,4680,383.8C4800,343,4920,245,5040,220.5C5160,196,5280,245,5400,245C5520,245,5640,196,5760,196C5880,196,6000,245,6120,220.5C6240,196,6360,98,6480,49C6600,0,6720,0,6840,40.8C6960,82,7080,163,7200,163.3C7320,163,7440,82,7560,81.7C7680,82,7800,163,7920,212.3C8040,261,8160,278,8280,294C8400,310,8520,327,8580,334.8L8640,343L8640,490L8580,490C8520,490,8400,490,8280,490C8160,490,8040,490,7920,490C7800,490,7680,490,7560,490C7440,490,7320,490,7200,490C7080,490,6960,490,6840,490C6720,490,6600,490,6480,490C6360,490,6240,490,6120,490C6000,490,5880,490,5760,490C5640,490,5520,490,5400,490C5280,490,5160,490,5040,490C4920,490,4800,490,4680,490C4560,490,4440,490,4320,490C4200,490,4080,490,3960,490C3840,490,3720,490,3600,490C3480,490,3360,490,3240,490C3120,490,3000,490,2880,490C2760,490,2640,490,2520,490C2400,490,2280,490,2160,490C2040,490,1920,490,1800,490C1680,490,1560,490,1440,490C1320,490,1200,490,1080,490C960,490,840,490,720,490C600,490,480,490,360,490C240,490,120,490,60,490L0,490Z"/><defs><linearGradient id="sw-gradient-1" x1="0" x2="0" y1="1" y2="0"><stop stop-color="rgba(243, 106, 62, 1)" offset="0%"/><stop stop-color="rgba(255, 179, 11, 1)" offset="100%"/></linearGradient></defs><path style="transform:translate(0, 50px); opacity:0.9" fill="url(#sw-gradient-1)" d="M0,49L60,114.3C120,180,240,310,360,334.8C480,359,600,278,720,204.2C840,131,960,65,1080,57.2C1200,49,1320,98,1440,171.5C1560,245,1680,343,1800,383.8C1920,425,2040,408,2160,367.5C2280,327,2400,261,2520,220.5C2640,180,2760,163,2880,196C3000,229,3120,310,3240,302.2C3360,294,3480,196,3600,130.7C3720,65,3840,33,3960,24.5C4080,16,4200,33,4320,40.8C4440,49,4560,49,4680,89.8C4800,131,4920,212,5040,204.2C5160,196,5280,98,5400,57.2C5520,16,5640,33,5760,49C5880,65,6000,82,6120,130.7C6240,180,6360,261,6480,245C6600,229,6720,114,6840,106.2C6960,98,7080,196,7200,228.7C7320,261,7440,229,7560,187.8C7680,147,7800,98,7920,73.5C8040,49,8160,49,8280,73.5C8400,98,8520,147,8580,171.5L8640,196L8640,490L8580,490C8520,490,8400,490,8280,490C8160,490,8040,490,7920,490C7800,490,7680,490,7560,490C7440,490,7320,490,7200,490C7080,490,6960,490,6840,490C6720,490,6600,490,6480,490C6360,490,6240,490,6120,490C6000,490,5880,490,5760,490C5640,490,5520,490,5400,490C5280,490,5160,490,5040,490C4920,490,4800,490,4680,490C4560,490,4440,490,4320,490C4200,490,4080,490,3960,490C3840,490,3720,490,3600,490C3480,490,3360,490,3240,490C3120,490,3000,490,2880,490C2760,490,2640,490,2520,490C2400,490,2280,490,2160,490C2040,490,1920,490,1800,490C1680,490,1560,490,1440,490C1320,490,1200,490,1080,490C960,490,840,490,720,490C600,490,480,490,360,490C240,490,120,490,60,490L0,490Z"/><defs><linearGradient id="sw-gradient-2" x1="0" x2="0" y1="1" y2="0"><stop stop-color="rgba(243, 106, 62, 1)" offset="0%"/><stop stop-color="rgba(255, 179, 11, 1)" offset="100%"/></linearGradient></defs><path style="transform:translate(0, 100px); opacity:0.8" fill="url(#sw-gradient-2)" d="M0,343L60,334.8C120,327,240,310,360,302.2C480,294,600,294,720,277.7C840,261,960,229,1080,187.8C1200,147,1320,98,1440,73.5C1560,49,1680,49,1800,49C1920,49,2040,49,2160,98C2280,147,2400,245,2520,261.3C2640,278,2760,212,2880,155.2C3000,98,3120,49,3240,73.5C3360,98,3480,196,3600,212.3C3720,229,3840,163,3960,171.5C4080,180,4200,261,4320,294C4440,327,4560,310,4680,318.5C4800,327,4920,359,5040,383.8C5160,408,5280,425,5400,400.2C5520,376,5640,310,5760,236.8C5880,163,6000,82,6120,98C6240,114,6360,229,6480,236.8C6600,245,6720,147,6840,89.8C6960,33,7080,16,7200,65.3C7320,114,7440,229,7560,269.5C7680,310,7800,278,7920,285.8C8040,294,8160,343,8280,310.3C8400,278,8520,163,8580,106.2L8640,49L8640,490L8580,490C8520,490,8400,490,8280,490C8160,490,8040,490,7920,490C7800,490,7680,490,7560,490C7440,490,7320,490,7200,490C7080,490,6960,490,6840,490C6720,490,6600,490,6480,490C6360,490,6240,490,6120,490C6000,490,5880,490,5760,490C5640,490,5520,490,5400,490C5280,490,5160,490,5040,490C4920,490,4800,490,4680,490C4560,490,4440,490,4320,490C4200,490,4080,490,3960,490C3840,490,3720,490,3600,490C3480,490,3360,490,3240,490C3120,490,3000,490,2880,490C2760,490,2640,490,2520,490C2400,490,2280,490,2160,490C2040,490,1920,490,1800,490C1680,490,1560,490,1440,490C1320,490,1200,490,1080,490C960,490,840,490,720,490C600,490,480,490,360,490C240,490,120,490,60,490L0,490Z"/></svg>